<?xml version="1.0" encoding="utf-8"?>
<!-- Generator: Adobe Illustrator 16.0.0, SVG Export Plug-In . SVG Version: 6.00 Build 0)  -->
<!DOCTYPE svg PUBLIC "-//W3C//DTD SVG 1.1//EN" "http://www.w3.org/Graphics/SVG/1.1/DTD/svg11.dtd">
<svg version="1.1" id="Ebene_1" xmlns="http://www.w3.org/2000/svg" xmlns:xlink="http://www.w3.org/1999/xlink" x="0px" y="0px"
	 width="2095px" height="1225px" viewBox="0 0 2095 1225" enable-background="new 0 0 2095 1225" xml:space="preserve">
<path fill-rule="evenodd" clip-rule="evenodd" fill="#1D71B8" d="M243.655,1035.228v71.113h15.176
	c16.938,0,28.939-2.713,35.997-8.196c7.057-5.483,10.587-14.677,10.587-27.696c0-12.022-3.414-20.88-10.295-26.642
	c-6.88-5.704-17.587-8.579-31.997-8.579H243.655L243.655,1035.228z M243.655,943.177v65.468h14.115
	c15.587,0,26.645-2.493,33.059-7.478c6.408-4.985,9.646-13.46,9.646-25.482c0-11.188-3.177-19.384-9.469-24.647
	c-6.295-5.264-16.057-7.86-29.293-7.86H243.655L243.655,943.177z M182.721,1133.261V916.258h102.577
	c24.937,0,44.57,5.274,58.935,15.836c14.341,10.538,21.529,24.983,21.529,43.267c0,13.17-4.058,23.87-12.173,32.055
	c-8.061,8.15-20.06,13.519-35.939,16.127c18.057,4.313,31.879,11.129,41.466,20.381c9.588,9.239,14.411,20.427,14.411,33.504
	c0,18.167-6.814,32.021-20.41,41.539c-13.637,9.541-33.412,14.295-59.346,14.295H182.721L182.721,1133.261z M461.554,1023.147
	c0,27.187,4.707,48.402,14.118,63.636c9.411,15.222,22.349,22.873,38.759,22.873c16.532,0,29.47-7.651,38.884-22.873
	c9.408-15.233,14.112-36.449,14.112-63.636c0-27.14-4.704-48.298-14.054-63.474c-9.356-15.233-22.352-22.815-38.942-22.815
	c-16.526,0-29.467,7.582-38.82,22.815C466.26,974.85,461.554,996.008,461.554,1023.147L461.554,1023.147z M514.431,909.939
	c15.943,0,31.235,2.435,45.88,7.361c14.706,4.927,27.291,11.906,37.881,20.88c12.761,10.688,22.41,23.268,28.937,37.725
	c6.527,14.398,9.825,30.293,9.825,47.566c0,17.229-3.298,33.019-9.941,47.301c-6.588,14.341-16.175,26.862-28.821,37.551
	c-10.707,8.974-23.294,15.952-37.881,20.88c-14.526,4.927-29.821,7.373-45.88,7.373c-15.996,0-31.288-2.492-45.878-7.478
	c-14.584-4.985-27.174-11.906-37.762-20.775c-12.822-10.909-22.525-23.534-28.998-37.934c-6.53-14.398-9.762-30.246-9.762-47.521
	c0-17.007,3.293-32.739,9.938-47.242c6.588-14.457,16.176-27.094,28.821-37.783c10.472-8.856,22.999-15.72,37.585-20.601
	C482.96,912.374,498.316,909.939,514.431,909.939L514.431,909.939z M688.446,1076.094c4.707,10.469,10.587,18.503,17.645,24.149
	c7.06,5.588,14.883,8.416,23.352,8.416c8.765,0,15.941-2.435,21.526-7.315c5.649-4.811,8.472-10.967,8.472-18.271
	c0-5.982-2.116-11.361-6.35-16.173c-4.234-4.765-11.176-9.691-20.824-14.619l-9.176-4.719
	c-20.935-10.515-33.525-17.494-37.759-20.938c-8.765-7.141-14.941-14.282-18.587-21.366c-3.588-7.095-5.411-15.407-5.411-24.879
	c0-20.926,7.469-37.991,22.349-51.219c14.883-13.24,34.293-19.883,58.175-19.883c16.822,0,31.525,3.594,44.17,10.793
	c12.646,7.2,22.529,17.553,29.644,31.128l-26.233,17.228c-4.588-10.41-10.408-18.225-17.468-23.43
	c-7.058-5.205-15.472-7.813-25.233-7.813c-8.115,0-14.883,2.388-20.233,7.142c-5.353,4.765-8.002,10.746-8.002,17.888
	c0,6.04,2.237,11.361,6.648,15.906c4.409,4.533,12.88,9.854,25.525,15.952l4.295,2.099c23.586,11.025,37.762,18.387,42.585,22.213
	c8.53,6.585,14.648,13.506,18.41,20.821c3.707,7.315,5.588,15.79,5.588,25.528c0,21.332-7.884,38.664-23.706,52.065
	c-15.822,13.402-36.348,20.103-61.642,20.103c-18.06,0-33.997-3.709-47.819-11.188c-13.88-7.478-24.41-17.992-31.644-31.626
	L688.446,1076.094L688.446,1076.094z M921.042,941.171v75.102h14.472c15.407,0,26.76-2.771,34.116-8.301
	c7.35-5.483,11.054-14.074,11.054-25.645c0-12.3-4.292-22.212-12.822-29.806c-8.585-7.582-19.822-11.351-33.702-11.351H921.042
	L921.042,941.171z M858.224,1131.255V914.252h92.111c29.525,0,52.408,6.098,68.705,18.341c16.289,12.23,24.464,29.412,24.464,51.509
	c0,18.051-6.529,32.449-19.528,43.08c-13.06,10.689-30.644,16.011-52.761,16.011h-50.173v88.063H858.224L858.224,1131.255z
	 M1141.855,1023.147c0,27.187,4.707,48.402,14.121,63.636c9.414,15.222,22.352,22.873,38.762,22.873
	c16.527,0,29.465-7.651,38.879-22.873c9.414-15.233,14.121-36.449,14.121-63.636c0-27.14-4.707-48.298-14.063-63.474
	c-9.351-15.233-22.352-22.815-38.937-22.815c-16.525,0-29.464,7.582-38.819,22.815
	C1146.563,974.85,1141.855,996.008,1141.855,1023.147L1141.855,1023.147z M1194.738,909.939c15.941,0,31.232,2.435,45.881,7.361
	c14.706,4.927,27.291,11.906,37.875,20.88c12.765,10.688,22.41,23.268,28.938,37.725c6.533,14.398,9.831,30.293,9.831,47.566
	c0,17.229-3.298,33.019-9.947,47.301c-6.585,14.341-16.173,26.862-28.821,37.551c-10.7,8.974-23.291,15.952-37.875,20.88
	c-14.532,4.927-29.818,7.373-45.881,7.373c-15.998,0-31.289-2.492-45.88-7.478c-14.585-4.985-27.175-11.906-37.759-20.775
	c-12.822-10.909-22.526-23.534-29.001-37.934c-6.527-14.398-9.762-30.246-9.762-47.521c0-17.007,3.292-32.739,9.941-47.242
	c6.585-14.457,16.173-27.094,28.821-37.783c10.469-8.856,23-15.72,37.585-20.601C1163.27,912.374,1178.619,909.939,1194.738,909.939
	L1194.738,909.939z M1350.727,1131.255V914.252h100.52c28.938,0,51.643,5.936,68.168,17.784
	c16.475,11.848,24.706,28.021,24.706,48.575c0,15.002-4.47,27.36-13.472,36.879c-8.938,9.587-22.352,16.393-40.171,20.381
	l55.706,93.384h-72.174l-56.233-110.333h14.468c16,0,27.883-3.212,35.65-9.692c7.762-6.423,11.639-16.173,11.639-29.296
	c0-13.843-3.999-24.091-12.057-30.792c-8.057-6.643-20.584-9.971-37.643-9.971h-16.289v190.084H1350.727L1350.727,1131.255z
	 M1579.097,914.252h79.403v128.5c0,21.517,3.594,57.932,33.51,57.932c16.016,0,29.418-4.324,36.084-12.903
	c6.666-8.591,10.027-23.593,10.027-45.028v-128.5h37.766l0.998,138.25c0.203,28.009-10.975,49.017-26.857,63.021
	c-15.889,14.017-42.813,21.054-74.846,21.054c-14.514,0-28.287-2.11-41.504-6.261c-13.141-4.15-23.73-9.75-31.777-16.787
	c-8.219-7.141-14.144-15.233-17.569-24.194c-3.483-8.974-5.234-21.274-5.234-36.832V914.252L1579.097,914.252z M1838.508,1076.094
	c4.707,10.469,10.586,18.503,17.645,24.149c7.061,5.588,14.887,8.416,23.35,8.416c8.764,0,15.941-2.435,21.529-7.315
	c5.645-4.811,8.475-10.967,8.475-18.271c0-5.982-2.121-11.361-6.359-16.173c-4.238-4.765-11.17-9.691-20.816-14.619l-9.182-4.719
	c-20.938-10.515-33.527-17.494-37.76-20.938c-8.764-7.141-14.943-14.282-18.584-21.366c-3.594-7.095-5.414-15.407-5.414-24.879
	c0-20.926,7.467-37.991,22.354-51.219c14.879-13.24,34.293-19.883,58.174-19.883c16.816,0,31.523,3.594,44.17,10.793
	c12.648,7.2,22.527,17.553,29.645,31.128l-26.234,17.228c-4.586-10.41-10.412-18.225-17.473-23.43
	c-7.055-5.205-15.465-7.813-25.227-7.813c-8.115,0-14.885,2.388-20.236,7.142c-5.35,4.765-7.998,10.746-7.998,17.888
	c0,6.04,2.23,11.361,6.648,15.906c4.404,4.533,12.879,9.854,25.521,15.952l4.297,2.099c23.592,11.025,37.758,18.387,42.582,22.213
	c8.531,6.585,14.646,13.506,18.41,20.821c3.709,7.315,5.588,15.79,5.588,25.528c0,21.332-7.879,38.664-23.697,52.065
	c-15.824,13.402-36.357,20.103-61.646,20.103c-18.057,0-33.998-3.709-47.818-11.188c-13.889-7.478-24.408-17.992-31.648-31.626
	L1838.508,1076.094L1838.508,1076.094z M240.783,642.957l-102.409-0.231c-2.696,22.294,4.591,35.857-7.083,54.477
	c-28.137,44.866-49.657,71.913-82.991,112.084c20.216-14.271,87.126-91.818,88.903-102.717c1.113,8.591,1.562,33.343,0.544,41.829
	c-0.907,7.523-12.895,21.795-17.923,28.392c-13.576,17.808-27.421,34.34-40.867,50.292c4.797-4.684,8.994-8.162,15.39-13.75
	c6.136-5.367,8.718-8.973,15.17-15.21c9.327-9.008,18.08-21.019,28.064-30.78l0.211,153.355
	c-4.005,3.443-24.94,14.399-30.942,17.796l30.412-9.784l0.563,203.52l33.096,0.14l0.142-218.151
	c379.782-104.791,599.019-196.274,1407.239-264.419l0.817,236.294l80.11,0.093l0.248-238.811l78.168-0.614l0.527,236.317
	l38.205-0.046l0.465-235.193c48.176-1.785,139.959,5.055,193.045,9.333c19.402,1.564,44.211,5.274,62.703,4.962
	c-16.289-6.597-99.783-15.152-124.686-18.027c-43.289-4.997-86.916-9.159-130.971-12.22l-0.092-292.545l83.611,68.548
	c16.381,13.544,72.098,54.936,91.244,63.717l-77.959-59.499c-8.973-6.443-17.32-14.825-25.783-21.796l-48.809-44.367
	c-26.055-27.273-24.275-17.811-22.189-68.972l20.961,25.088c6.863,8.524,13.871,16.938,21.668,25.534
	c15.785,17.39,29.141,30.98,45.701,47.139l48.158,45.031c14.908,13.167,33.725,30.412,50.223,42.469l-66.152-64.143
	c-40.953-39.443-86.375-97.294-116.279-144.009c-9.137-14.271-3.664-97.372-4.551-120.043l-38.334-0.452
	c-0.672,22.41,3.965,23.848-13.471,34.395c-3.293-0.594-63.502-29.392-65.266-36.075l-0.133-81.42l-79.993-0.577
	c-4.87,35.427,8.915,22.477-15.698,47.475c-50.883,51.692-191.445,173.711-239.539,213.363
	c-63.775,52.584-153.137,119.547-223.449,166.743c-131.068,87.993-279.21,172.853-437.038,221.742
	c-87.5,27.104-143.794,34.2-237.871,24.091c-36.982-3.965-77.287-13.355-108.093-25.366c-26.224-10.226-43.655-19.06-65.407-33.203
	C238.638,655.814,243.463,659.93,240.783,642.957L240.783,642.957z M1692.932,221.811c7.217-6.277,21.539-17.842,29.945-21.726
	c19.754,7.644,15.297,11.396,15.244,32.511c-0.033,14.39,0.986,31.972-0.336,45.953
	C1729.207,268.727,1696.652,232.61,1692.932,221.811L1692.932,221.811z M696.1,700.877c11.738-0.046,115.941-45.388,132.911-53.201
	c240.747-110.806,466.224-281.488,653.93-450.161c9.971-8.962,87.6-83.765,96.109-88.101l-0.742,164.538l-49.033,33.405
	c-48.432,32.636-98.77,64.033-149.561,94.463c-134.592,80.637-284.464,158.851-435.411,219.585
	C903.6,637.775,730.802,701.793,696.1,700.877L696.1,700.877z M1659.449,261.364c-0.068-17.074,0.488-18.105,13.229-24.639
	l48.588,49.532c12.357,13.697,17.135,7.483,16.867,30.786c-0.174,14.906,0.842,31.325-0.545,46.408l-78.127-34.502L1659.449,261.364
	L1659.449,261.364z M241.855,872.018l-0.336-158.597c4.409,0.673,51.648,18.028,87.08,25.03
	c113.4,22.363,201.77,3.293,313.039-14.028c244.416-38.049,592.049-210.769,798.468-335.109l138.678-86.889
	c1.143,34.084,2.621,308.523-1.078,321.415c-348.377-1.414-724.684,47.556-1047.676,146.215
	c-49.819,15.222-99.673,30.015-147.432,47.753L241.855,872.018L241.855,872.018z M1659.971,361.458
	c7.084,2.034,73.119,30.867,78.145,34.763l-0.48,232.929l-78.186-3.918L1659.971,361.458L1659.971,361.458z M201.067,670.862
	c-4.64-3.524-13.845-10.005-19.25-12.173c-12.704,4.278-9.834,6.376-9.802,18.213c0.023,8.069-0.632,17.923,0.22,25.749
	C177.747,697.156,198.673,676.914,201.067,670.862L201.067,670.862z M222.59,693.028c0.046-9.575-0.307-10.155-8.501-13.808
	l-31.238,27.755c-7.944,7.675-11.014,4.196-10.84,17.251c0.11,8.358-0.545,17.552,0.348,26.004l50.225-19.338L222.59,693.028
	L222.59,693.028z M222.259,749.117c-4.556,1.136-47.008,17.297-50.242,19.477l0.31,130.528l50.228-18.073L222.259,749.117
	L222.259,749.117z"/>
</svg>
